<?xml version="1.0" encoding="utf-8"?>
<!-- Generator: Adobe Illustrator 23.0.1, SVG Export Plug-In . SVG Version: 6.00 Build 0)  -->
<svg version="1.1" xmlns="http://www.w3.org/2000/svg" xmlns:xlink="http://www.w3.org/1999/xlink" x="0px" y="0px"
	 viewBox="0 0 509.39 93.58" style="enable-background:new 0 0 509.39 93.58;" xml:space="preserve">
<style type="text/css">
	.st0{fill:#C75E3C;}
	.st1{fill:#C75E3C;}
</style>
<g id="Background">
</g>
<g id="Objects">
	<path class="st0" d="M92.37,1.27L80.52,13.5L68.66,1.27l-5.29,5.46l38.13,39.73L80.52,68.13l-6.39-6.59l14.6-15.07L44.95,1.27
		L1.18,46.46l43.78,45.19l11.85-12.24l11.85,12.24l5.43-5.6L35.82,46.46l20.99-21.67l6.39,6.59l-14.6,15.07l43.78,45.19l43.78-45.19
		L92.37,1.27z M24.88,46.46l26.46,27.31l-6.39,6.59L12.11,46.46l32.85-33.91l6.39,6.59L24.88,46.46z M59.53,46.46l9.14-9.43
		l9.14,9.43l-9.14,9.43L59.53,46.46z M85.98,73.77l26.46-27.31L85.98,19.15l6.39-6.59l32.84,33.91L92.37,80.36L85.98,73.77z"/>
	<g>
		<path class="st1" d="M176.45,16.81h10.68v19.58h25.73V16.81h10.68v50.86h-10.68V45.01h-25.73v22.65h-10.68V16.81z"/>
		<path class="st1" d="M246.83,54.87l-5.12,12.79h-11.02l20.93-50.86h13.54l21.92,50.86h-11.57l-5.41-12.79H246.83z M267.01,46.2
			c-5.21-12.42-7.71-18.59-8.92-22.34h-0.07c-1.11,3.65-4.06,11.7-8.3,22.34H267.01z"/>
		<path class="st1" d="M303.48,67.66l-21.21-50.86h11.8l9.79,25.15c3.66,9.45,5.18,14.26,6.09,17.38h0.14
			c0.79-2.79,2.01-5.99,6.34-17.63l9.81-24.9h11.42L316.1,67.66H303.48z"/>
		<path class="st1" d="M349.22,54.87l-5.12,12.79h-11.02l20.93-50.86h13.54l21.92,50.86H377.9l-5.41-12.79H349.22z M369.4,46.2
			c-5.21-12.42-7.71-18.59-8.92-22.34h-0.07c-1.11,3.65-4.06,11.7-8.3,22.34H369.4z"/>
		<path class="st1" d="M396.62,67.66V16.81h12.68c13.37,19.91,22.5,32.02,25.59,37.81h0.14c-0.48-5.75-0.41-14.79-0.41-23.12V16.81
			h9.83v50.86h-11.91c-5.68-8.41-23.14-34.37-26.36-40.22h-0.14c0.41,6.36,0.41,13.59,0.41,22.61v17.61H396.62z"/>
		<path class="st1" d="M467.73,54.87l-5.12,12.79h-11.02l20.93-50.86h13.54l21.92,50.86h-11.57L491,54.87H467.73z M487.91,46.2
			c-5.21-12.42-7.71-18.59-8.92-22.34h-0.07c-1.11,3.65-4.06,11.7-8.3,22.34H487.91z"/>
	</g>
	<g>
	</g>
	<g>
	</g>
	<g>
	</g>
	<g>
	</g>
	<g>
	</g>
	<g>
	</g>
</g>
</svg>
